<?xml version="1.0" encoding="utf-8"?>
<!-- Generator: Adobe Illustrator 16.0.0, SVG Export Plug-In . SVG Version: 6.00 Build 0)  -->
<!DOCTYPE svg PUBLIC "-//W3C//DTD SVG 1.1//EN" "http://www.w3.org/Graphics/SVG/1.1/DTD/svg11.dtd">
<svg version="1.1" id="Layer_1" xmlns="http://www.w3.org/2000/svg" xmlns:xlink="http://www.w3.org/1999/xlink" x="0px" y="0px"
	 width="68.2px" height="92.8px" viewBox="0 0 128 128" enable-background="new 0 0 128 128" xml:space="preserve">
<g>
	<g>
		<path fill="#282D33" d="M89.729,78.094H38.271V53.915l11.932,7.329L64,49.252l13.796,11.991l11.933-7.329V78.094z M42.301,74.064
			h43.398V61.119l-8.314,5.105L64,54.591L50.615,66.225l-8.313-5.105V74.064z"/>
	</g>
	<g>
		<g>
			<g>
				<g>
					<path fill="#282D33" d="M33.661,24.808L33.661,24.808c-0.678,0-1.361-0.05-2.03-0.149l-1.445-0.213l-0.247-1.439
						c-0.755-4.399,0.633-8.926,3.712-12.11c2.619-2.714,6.142-4.21,9.918-4.21c0.674,0,1.355,0.05,2.022,0.148l1.446,0.212
						l0.247,1.44c0.756,4.402-0.631,8.931-3.71,12.114C40.955,23.313,37.435,24.808,33.661,24.808z M43.456,10.716
						c-2.63,0.029-5.079,1.084-6.908,2.979c-1.831,1.894-2.82,4.458-2.781,7.082c2.63-0.028,5.08-1.083,6.908-2.978
						C42.507,15.907,43.496,13.342,43.456,10.716z"/>
				</g>
				<g>
					<path fill="#282D33" d="M21.071,39.413l-1.263-0.751c-3.725-2.215-6.188-6.12-6.587-10.444
						c-0.397-4.324,1.307-8.617,4.56-11.485l1.103-0.973l1.263,0.754c3.721,2.222,6.181,6.125,6.582,10.441
						c0.398,4.32-1.305,8.614-4.555,11.485L21.071,39.413z M19.356,20.887c-1.573,1.934-2.355,4.44-2.123,6.96
						c0.232,2.517,1.458,4.833,3.357,6.44c1.574-1.937,2.355-4.443,2.124-6.962C22.481,24.813,21.255,22.498,19.356,20.887z"/>
				</g>
				<g>
					<path fill="#282D33" d="M15.53,60.649l-1.457-0.142c-4.312-0.421-8.186-2.914-10.361-6.667
						c-2.173-3.747-2.43-8.362-0.688-12.346l0.587-1.341l1.457,0.144c4.308,0.425,8.18,2.917,10.356,6.667
						c2.173,3.743,2.431,8.357,0.691,12.345L15.53,60.649z M6.208,44.588c-0.621,2.431-0.28,5.041,0.989,7.229
						c1.264,2.179,3.341,3.752,5.733,4.398c0.62-2.433,0.279-5.043-0.99-7.229C10.676,46.81,8.598,45.236,6.208,44.588z"/>
				</g>
				<g>
					<path fill="#282D33" d="M13.501,83.533C13.501,83.533,13.501,83.533,13.501,83.533c-2.748,0-5.397-0.834-7.663-2.414
						c-3.541-2.471-5.711-6.547-5.807-10.902L0,68.762l1.372-0.488c1.459-0.52,2.983-0.783,4.529-0.783
						c2.751,0,5.402,0.836,7.665,2.416c3.542,2.471,5.713,6.547,5.807,10.902l0.031,1.453l-1.369,0.488
						C16.572,83.27,15.047,83.533,13.501,83.533z M4.213,71.672c0.445,2.49,1.829,4.676,3.93,6.143
						c1.585,1.105,3.438,1.689,5.357,1.689l0,0c0.567,0,1.13-0.051,1.686-0.15c-0.455-2.475-1.858-4.699-3.927-6.143
						C9.208,71.777,6.647,71.23,4.213,71.672z"/>
				</g>
				<g>
					<path fill="#282D33" d="M21.487,105.131C21.486,105.131,21.487,105.131,21.487,105.131c-0.76,0-1.527-0.066-2.281-0.195
						c-4.255-0.734-7.934-3.506-9.842-7.418L8.73,96.219l1.028-1.016c2.551-2.521,5.91-3.91,9.458-3.91
						c0.757,0,1.521,0.064,2.272,0.193c4.256,0.736,7.936,3.508,9.847,7.418l0.636,1.301l-1.03,1.018
						C28.39,103.742,25.032,105.131,21.487,105.131z M13.765,97.078c1.441,2.063,3.607,3.451,6.125,3.887
						c2.483,0.426,5.02-0.17,7.041-1.615c-1.446-2.045-3.648-3.463-6.126-3.893C18.329,95.033,15.784,95.631,13.765,97.078z"/>
				</g>
				<g>
					<path fill="#282D33" d="M37.743,121.314C37.743,121.314,37.743,121.314,37.743,121.314c-3.062,0-6.071-1.072-8.475-3.021
						l-1.126-0.912l0.507-1.357c1.522-4.078,4.912-7.199,9.068-8.35c4.146-1.146,8.694-0.178,12.042,2.529l1.127,0.91l-0.505,1.359
						c-1.52,4.08-4.911,7.205-9.071,8.355C40.143,121.15,38.943,121.314,37.743,121.314z M33.078,116.033
						c1.422,0.814,3.034,1.252,4.665,1.252l0,0c0.837,0,1.676-0.115,2.494-0.342c2.423-0.67,4.476-2.299,5.715-4.479
						c-2.154-1.229-4.752-1.572-7.161-0.908C36.371,112.227,34.318,113.855,33.078,116.033z"/>
				</g>
				<g>
					<path fill="#282D33" d="M56.773,112.77c-26.25-4.613-44.658-28.326-42.82-55.158c0.958-13.94,7.244-26.672,17.702-35.852
						l2.658,3.028c-9.653,8.473-15.456,20.228-16.34,33.099c-1.697,24.769,15.283,46.657,39.497,50.913L56.773,112.77z"/>
				</g>
			</g>
			<g>
				<g>
					<path fill="#282D33" d="M94.343,24.81c-3.772,0-7.294-1.495-9.918-4.21c-3.079-3.188-4.465-7.716-3.707-12.112l0.248-1.438
						l1.443-0.212c0.669-0.099,1.351-0.149,2.026-0.149c3.771,0,7.293,1.495,9.916,4.208c3.079,3.188,4.465,7.716,3.708,12.113
						l-0.246,1.439l-1.444,0.213C95.7,24.76,95.019,24.81,94.343,24.81z M84.545,10.718c-0.041,2.622,0.947,5.187,2.778,7.082
						c1.832,1.896,4.282,2.952,6.91,2.98c0.039-2.623-0.949-5.188-2.779-7.083C89.622,11.801,87.173,10.746,84.545,10.718z"/>
				</g>
				<g>
					<path fill="#282D33" d="M106.931,39.415l-1.101-0.973c-3.254-2.875-4.955-7.169-4.555-11.487
						c0.401-4.319,2.862-8.222,6.585-10.44l1.262-0.752l1.103,0.973c3.249,2.867,4.953,7.16,4.557,11.483
						c-0.404,4.331-2.868,8.234-6.589,10.446L106.931,39.415z M108.646,20.888c-1.898,1.608-3.125,3.923-3.358,6.439
						c-0.233,2.518,0.548,5.024,2.124,6.962c1.897-1.606,3.122-3.921,3.358-6.442C110.999,25.329,110.219,22.822,108.646,20.888z"/>
				</g>
				<g>
					<path fill="#282D33" d="M112.474,60.653l-0.587-1.342c-1.74-3.986-1.483-8.602,0.688-12.347
						c2.176-3.75,6.049-6.242,10.36-6.667l1.459-0.144l0.585,1.344c1.738,3.989,1.48,8.603-0.69,12.344
						c-2.176,3.751-6.048,6.244-10.357,6.669L112.474,60.653z M121.793,44.589c-2.392,0.648-4.47,2.221-5.732,4.397
						c-1.269,2.188-1.609,4.799-0.989,7.231c2.392-0.647,4.469-2.221,5.731-4.399C122.071,49.633,122.412,47.022,121.793,44.589z"/>
				</g>
				<g>
					<path fill="#282D33" d="M114.501,83.533c-1.546,0-3.07-0.264-4.532-0.783l-1.371-0.488l0.032-1.453
						c0.094-4.355,2.266-8.428,5.806-10.9c2.265-1.58,4.915-2.414,7.665-2.414c1.545,0,3.069,0.264,4.528,0.781L128,68.764
						l-0.031,1.455c-0.097,4.354-2.267,8.43-5.807,10.898C119.896,82.699,117.246,83.533,114.501,83.533z M112.816,79.354
						c2.434,0.439,4.985-0.107,7.041-1.539c2.065-1.443,3.469-3.668,3.924-6.141c-2.435-0.441-4.988,0.107-7.039,1.539
						C114.674,74.656,113.271,76.881,112.816,79.354z"/>
				</g>
				<g>
					<path fill="#282D33" d="M106.511,105.131c-3.548,0-6.904-1.389-9.453-3.91l-1.028-1.018l0.637-1.301
						c1.913-3.908,5.594-6.678,9.843-7.412c4.288-0.738,8.639,0.654,11.735,3.713l1.03,1.018l-0.636,1.301
						c-1.914,3.914-5.594,6.686-9.845,7.414C108.039,105.064,107.271,105.131,106.511,105.131z M101.07,99.352
						c2.018,1.445,4.552,2.037,7.042,1.613c2.475-0.426,4.676-1.844,6.121-3.889c-2.02-1.445-4.556-2.041-7.04-1.615
						C104.718,95.889,102.517,97.307,101.07,99.352z"/>
				</g>
				<g>
					<path fill="#282D33" d="M90.259,121.314c-1.2,0-2.401-0.164-3.568-0.486c-4.161-1.148-7.551-4.273-9.069-8.355l-0.504-1.355
						l1.124-0.91c3.346-2.711,7.899-3.676,12.042-2.533c4.158,1.148,7.549,4.273,9.068,8.354l0.506,1.359l-1.127,0.91
						C96.326,120.242,93.317,121.314,90.259,121.314z M82.05,112.467c1.237,2.18,3.289,3.807,5.713,4.477
						c2.409,0.666,5.006,0.32,7.16-0.908c-1.238-2.18-3.291-3.809-5.713-4.477C86.804,110.893,84.202,111.236,82.05,112.467z"/>
				</g>
				<g>
					<path fill="#282D33" d="M71.228,112.773l-0.698-3.969c24.217-4.26,41.195-26.148,39.496-50.915
						c-0.88-12.869-6.683-24.623-16.336-33.099l2.658-3.028c10.459,9.182,16.744,21.915,17.697,35.852
						C115.887,84.441,97.479,108.154,71.228,112.773z"/>
				</g>
			</g>
		</g>
	</g>
</g>
</svg>
