<svg id="Layer_1" data-name="Layer 1" xmlns="http://www.w3.org/2000/svg" x="0px" y="0px"  width="62.88px" height="83.828px" viewBox="0 0 122.88 79.38"><defs><style>.cls-1{fill-rule:evenodd;}</style></defs><title>income-drop</title><path class="cls-1" d="M82.64,69.24c0,5-7.73,9-17.25,9s-17.25-4-17.25-9a5.28,5.28,0,0,1,.79-2.71c2.19,3.68,8.73,6.34,16.46,6.34,5.1,0,13.59-1.51,16.46-6.34a5.31,5.31,0,0,1,.79,2.71ZM42.28,68.3c0,6.11-9.47,11.08-21.14,11.08S0,74.41,0,68.3A6.39,6.39,0,0,1,1,65c2.69,4.5,10.7,7.77,20.17,7.77,6.25,0,16.65-1.86,20.17-7.77a6.39,6.39,0,0,1,1,3.32Zm.12-11.54c0,6.11-9.47,11.08-21.14,11.08S.12,62.87.12,56.76a6.42,6.42,0,0,1,1-3.32c2.69,4.5,10.7,7.77,20.17,7.77,6.25,0,16.65-1.85,20.17-7.77a6.51,6.51,0,0,1,1,3.32ZM28.89,28l-.25,2.75-10.37-.9a9.36,9.36,0,0,1,1.78,3.73l-2.5-.22a8,8,0,0,0-1.12-2.45A5.09,5.09,0,0,0,14.27,29l.2-2.23L28.89,28Zm-7.31-4.31c9.44,0,17.05,3.1,17.05,6.82s-7.78,6.81-17.37,6.81S3.89,34.25,3.89,30.5s7.53-6.75,16.91-6.82Zm-.07-2.26c11.55,0,20.89,5,20.89,11.08S32.93,43.58,21.26,43.58.12,38.62.12,32.5s9.34-11,20.9-11.08ZM42.4,44.85c0,6.11-9.47,11.08-21.14,11.08S.12,51,.12,44.85A6.26,6.26,0,0,1,1,41.67c2.61,4.56,10.68,7.9,20.25,7.9,6.26,0,16.8-1.88,20.24-7.9a6.36,6.36,0,0,1,.9,3.18Zm51.92-7.19a3.69,3.69,0,1,1-1.57-7.22L99.27,29,73.39,14,64.12,24.09a3.71,3.71,0,0,1-4.4.94L22.2,7A3.68,3.68,0,0,1,25.37.36L60.44,17.19,70,6.78a3.69,3.69,0,0,1,4.57-.7l29.19,17-1.6-7.28a3.7,3.7,0,0,1,7.23-1.56l3.39,15.46,0,.17a3.7,3.7,0,0,1-2.84,4.4L94.32,37.66Zm17.54,17.48-.2,2.24-8.47-.73a7.65,7.65,0,0,1,1.45,3l-2-.18a6.58,6.58,0,0,0-.92-2,4.18,4.18,0,0,0-1.76-1.57l.16-1.82,11.77,1Zm-5.29-3.5c7.39.19,13.24,2.6,13.24,5.54s-6.35,5.57-14.18,5.57-14.18-2.5-14.18-5.57,6-5.41,13.49-5.55c.55,0,1.09,0,1.63,0Zm0-1.85c9.11.24,16.36,4.2,16.36,9,0,5-7.73,9.05-17.25,9.05s-17.25-4.06-17.25-9.05,7.3-8.81,16.46-9c.56,0,1.11,0,1.68,0Zm15.63,16.9a5.22,5.22,0,0,1,.73,2.6c0,5-7.73,9-17.25,9s-17.25-4-17.25-9a5.09,5.09,0,0,1,.73-2.6c2.13,3.73,8.71,6.45,16.52,6.45,5.16,0,13.73-1.56,16.52-6.45ZM71.62,45l-.2,2.24L63,46.49a7.76,7.76,0,0,1,1.45,3l-2-.18a6.58,6.58,0,0,0-.92-2,4.12,4.12,0,0,0-1.75-1.58L59.85,44l11.77,1Zm-5.31-3.51c7.4.19,13.25,2.61,13.25,5.55s-6.35,5.56-14.17,5.56S51.21,50.09,51.21,47s5.95-5.4,13.42-5.55Zm-.07-1.85c9.12.24,16.4,4.2,16.4,9s-7.73,9-17.25,9-17.25-4.05-17.25-9,7.33-8.84,16.51-9c.53,0,1,0,1.59,0Zm16.4,19.5c0,5-7.73,9.05-17.25,9.05s-17.25-4.06-17.25-9.05a5,5,0,0,1,.73-2.59C51,60.26,57.58,63,65.39,63c5.11,0,13.72-1.54,16.52-6.45a5.24,5.24,0,0,1,.73,2.59Z"/></svg>